<svg width="64" height="64" viewBox="0 0 64 64" fill="none" xmlns="http://www.w3.org/2000/svg">
<path fill-rule="evenodd" clip-rule="evenodd" d="M57.2947 6.7052C51.5027 0.914537 40.836 3.8147e-06 32 3.8147e-06C23.164 3.8147e-06 12.4973 0.914537 6.70534 6.7052C0.914672 12.4973 0 23.164 0 32C0 40.836 0.914672 51.5041 6.70534 57.2948C12.4973 63.0855 23.164 64 32 64C40.836 64 51.5027 63.0855 57.2947 57.2948C63.0853 51.5041 64 40.836 64 32C64 23.164 63.0853 12.4973 57.2947 6.7052Z" fill="#50C063"/>
<path d="M51.3189 36.4333C51.6507 35.9937 51.9871 35.5664 51.9994 34.9894C52.0108 34.454 51.7871 33.865 51.5219 33.4069C51.1696 32.7987 50.5012 32.4864 50.5363 31.6991C50.5831 30.6494 51.0901 29.6163 50.5707 28.5845C50.197 27.8419 49.5359 27.4819 48.79 27.3981C48.9228 27.1867 49.0488 26.9781 49.1398 26.7722C49.6386 25.6443 50.0074 24.4554 49.4561 23.2664C49.3171 22.9671 49.1621 22.8282 49.2232 22.516C49.2715 22.2687 49.5275 21.9823 49.6393 21.7506C49.9485 21.1091 50.189 20.4569 50.1907 19.7362C50.192 19.1469 50.0757 18.4845 49.7175 18.0011C49.5818 17.818 49.3314 17.7123 49.2135 17.5348C49.0637 17.3091 49.0973 16.9365 48.9914 16.6706C48.556 15.5781 47.3521 14.6244 46.1914 14.4686C45.459 14.3703 44.9504 14.5885 44.2719 14.7833C43.6246 14.9691 42.727 14.3267 42.0766 14.1631C41.3855 13.9894 40.7236 13.9449 40.0216 14.0762C39.2363 14.2231 38.4417 14.6338 37.6362 14.5642C36.1582 14.4365 34.7104 13.7796 33.2466 14.4938C32.6869 14.7668 32.3375 15.012 31.7115 14.7128C31.4572 14.5913 31.2548 14.3796 30.9864 14.276C30.3147 14.0167 29.5856 14.2312 28.9785 14.5613C28.916 14.5952 28.6785 14.7854 28.5815 14.8035C28.2559 14.8645 27.8883 14.5825 27.606 14.4561C27.3128 14.3248 27.0171 14.2375 26.6961 14.2177C26.0041 14.1749 25.4429 14.4754 24.9113 14.8892C24.6991 15.0545 24.4394 15.419 24.2006 15.52C23.8398 15.6727 23.1699 15.2811 22.8687 15.1529C22.2277 14.88 21.5956 14.6577 20.8875 14.7294C20.8561 14.7326 20.8244 14.7389 20.7928 14.7431C20.0562 14.6348 19.2773 14.6497 18.5803 14.8978C17.8316 15.1643 17.2856 15.7716 16.9232 16.4592C16.4526 17.3526 15.9577 18.2164 15.5084 19.1216C14.5226 21.1076 13.6957 23.0617 13.2172 25.2402C12.7414 27.4064 12.3476 29.627 12.0908 31.8305C11.9723 32.8469 11.9526 33.8742 12.1365 34.8844C12.341 36.0081 12.8522 37.0328 13.1841 38.1181C13.3868 38.7809 13.6044 39.4122 14.0186 39.9343C13.8025 40.0339 13.5844 40.1317 13.4089 40.3107C13.1333 40.5918 13.0072 40.9671 12.9701 41.3513C12.9154 41.9176 12.9362 42.3949 12.7375 42.9458C12.5401 43.4929 12.2612 44.0546 12.3402 44.6535C12.4534 45.5106 13.0129 45.8774 13.7215 46.22C14.6758 46.6814 15.1245 47.8198 16.1522 48.1371C16.6182 48.2809 17.0791 48.1931 17.5477 48.1278C18.2935 48.0238 18.9547 48.1559 19.641 48.4574C20.8031 48.9681 21.9615 49.3755 23.2504 49.4299C24.3179 49.4749 25.3403 49.0597 26.4066 49.2428C27.5975 49.4473 28.7057 49.9033 29.9382 49.838C31.1138 49.7755 32.3152 49.4642 33.4743 49.2612C34.8516 49.02 36.1673 49.2986 37.5495 49.2522C38.7168 49.213 39.8795 49.0045 40.9656 48.5693C41.495 48.3572 41.9844 48.0826 42.4854 47.8134C43.2574 47.3985 43.9455 47.221 44.8109 47.1158C45.8154 46.9937 46.8881 46.9191 47.7181 46.2784C48.3911 45.7588 49.0178 44.8603 49.1112 43.9998C49.1773 43.391 48.9382 42.7735 49.3502 42.2528C49.6523 41.871 50.0132 41.5685 50.282 41.1507C50.9571 40.101 50.5984 39.4019 50.3871 38.2849C50.3033 37.8423 50.2907 37.655 50.607 37.2937C50.8548 37.0102 51.0917 36.7342 51.3189 36.4333ZM43.5612 15.964C44.1112 16.1399 44.4164 15.9416 44.9306 15.7617C45.8285 15.4476 46.605 15.6657 47.2705 16.3143C47.4875 16.5258 47.7447 16.7631 47.8707 17.0423C47.977 17.278 47.9289 17.5377 48.0017 17.7742C48.1782 18.3482 48.7781 18.5305 48.9533 19.1019C49.1836 19.853 48.8923 20.6177 48.5541 21.2798C48.3326 21.7133 47.9099 22.2015 47.9148 22.7172C47.9191 23.1637 48.2804 23.4936 48.4271 23.8925C48.6555 24.5135 48.5182 25.1821 48.2759 25.7729C47.8033 26.9253 46.8713 27.8913 46.9168 29.1872C46.9275 29.4881 46.9465 29.5007 46.817 29.719C46.7383 29.8518 46.609 29.9168 46.5413 30.0775C46.3456 30.5422 46.659 31.0204 46.5171 31.5205C46.2154 32.5833 44.9332 32.8226 45.0992 34.0788C45.2764 35.4196 43.9425 36.8034 42.5738 36.623C41.2719 36.4515 40.1348 36.9711 38.8531 37.1826C38.0289 37.3186 37.2323 37.2889 36.4388 37.2154C36.1511 36.6072 36.0461 35.3978 36.0272 35.1357C35.9417 33.952 36.1149 32.829 36.3576 31.6745C36.8135 29.506 37.5541 27.3648 38.4348 25.3317C39.214 23.5328 40.0143 21.7343 40.8602 19.9662C41.2699 19.1099 41.6757 18.2126 42.1334 17.3835C42.4208 16.8628 42.7777 16.3234 43.0554 15.7743C43.221 15.8433 43.3886 15.9088 43.5612 15.964ZM40.3891 15.1852C40.7984 15.1395 41.2089 15.1471 41.6317 15.2422C42.0508 15.3364 42.4329 15.5068 42.8176 15.6732C42.3344 16.3169 41.8239 16.9348 41.4537 17.6744C40.9598 18.6612 40.4302 19.6254 39.9634 20.6262C39.0009 22.6894 37.9828 24.7332 37.206 26.8774C36.3948 29.1167 35.5189 31.4526 35.4021 33.8596C35.3522 34.8898 35.4549 35.8777 35.7446 36.864C35.7717 36.9561 35.7973 37.0536 35.825 37.1522C35.0696 37.0682 34.3113 36.9726 33.5292 36.9696C33.4486 36.9693 33.3682 36.9698 33.2878 36.9701C32.5114 35.2773 32.207 33.0374 32.6857 31.334C33.28 29.2194 34.0831 27.2256 35.081 25.2651C36.0517 23.3577 37.001 21.4257 38.1134 19.5972C38.654 18.7089 39.1384 17.7864 39.6344 16.8727C39.92 16.3464 40.2509 15.7805 40.3891 15.1852ZM18.2407 46.7734C17.7137 46.7534 17.1295 47.0016 16.6233 46.8729C16.0806 46.7349 15.8195 46.1966 15.4324 45.8245C15.1176 45.5218 14.7648 45.2927 14.3715 45.1077C13.844 44.8595 13.4817 44.7686 13.6642 44.0672C13.8055 43.5239 14.0826 43.0369 14.1686 42.4758C14.2479 41.9585 14.0339 41.3951 14.4849 41.0304C14.6419 40.9035 14.7913 40.8024 14.9321 40.6894C15.1806 40.82 15.4428 40.9223 15.7045 41.0309C16.3496 41.2986 16.7222 41.753 17.2551 42.184C18.136 42.8964 19.0959 43.2985 20.1205 43.4528C19.7574 44.0945 19.6322 44.9324 19.5743 45.6022C19.5356 46.0504 19.539 46.5731 19.6453 47.0613C19.193 46.9016 18.7217 46.7915 18.2407 46.7734ZM20.4162 47.3629C20.2406 46.8442 20.0886 46.3309 20.1062 45.7495C20.1306 44.9429 20.3024 44.2138 20.5979 43.5064C21.1055 43.5448 21.6276 43.5278 22.1633 43.4594C22.6333 43.3994 23.0678 43.4031 23.4902 43.4467C22.8711 44.4771 22.4494 45.4502 22.4162 46.726C22.4064 47.1017 22.4131 47.6368 22.5782 48.0459C21.8221 47.9155 21.1283 47.6484 20.4162 47.3629ZM48.9478 37.5676C48.7856 38.4069 49.5441 39.1793 49.3706 39.9926C49.1744 40.9123 48.0506 41.3191 47.8121 42.2453C47.5726 43.175 47.9322 43.9535 47.2786 44.7811C46.5742 45.6731 45.3645 45.7049 44.3232 45.8638C43.3013 46.0197 42.4816 46.384 41.5787 46.8709C40.5441 47.4288 39.4838 47.8062 38.3092 47.9289C37.3424 48.0299 36.4021 47.9438 35.4382 47.8685C34.2693 47.7772 33.1942 48.0397 32.0451 48.1992C31.0595 48.3361 30.0938 48.6154 29.0913 48.5056C28.0465 48.3912 27.0678 47.9623 26.0145 47.8777C25.1643 47.8093 24.3305 48.1104 23.4826 48.1256C23.467 48.1123 23.4501 48.1 23.43 48.0905C22.7125 47.7492 23.0532 45.8945 23.1681 45.346C23.3104 44.6672 23.6291 44.1148 23.8881 43.4996C24.4841 43.595 25.0698 43.7574 25.7123 43.921C26.7274 44.1794 27.6653 44.2064 28.6976 44.0186C29.8835 43.8029 31.0151 43.2817 32.2232 43.1873C33.447 43.0917 34.6559 43.254 35.8751 43.28C37.1322 43.3068 38.3721 43.0343 39.5883 42.7486C40.8892 42.443 42.1442 42.4685 43.4581 42.3287C43.6731 42.3058 43.7674 41.9621 43.514 41.9156C42.7021 41.7666 41.9248 41.5718 41.0941 41.5663C40.0905 41.5596 39.1508 41.7775 38.1652 41.9292C36.1228 42.2439 34.1212 41.8177 32.0779 42.0167C30.187 42.2008 28.4131 43.3048 26.4755 42.9247C25.6009 42.7532 24.7764 42.3966 23.8887 42.2876C22.8752 42.1632 21.9168 42.4252 20.91 42.4075C19.9853 42.3914 19.1595 42.0757 18.3914 41.5713C17.5829 41.0403 17.0939 40.294 16.1873 39.8844C15.1407 39.4114 14.7342 38.8742 14.4004 37.7825C14.0992 36.7971 13.6403 35.8623 13.4154 34.8529C12.9494 32.76 13.5462 30.4878 13.8764 28.4121C14.1819 26.4913 14.6119 24.5596 15.2268 22.7132C15.7008 21.2898 16.3772 19.9465 17.0467 18.6077C17.3643 17.9726 17.7036 17.3327 18.185 16.8044C18.9346 15.9818 19.9701 15.4877 21.0814 15.649C21.5844 15.722 22.156 15.8908 22.71 15.9861C23.4886 16.3892 24.217 16.833 24.9909 16.1695C25.506 15.7279 26.0144 15.1674 26.7557 15.2852C27.3694 15.3826 27.8484 15.9466 28.4945 15.9203C29.0231 15.8988 29.4169 15.4602 29.9016 15.3053C30.6657 15.0611 31.081 15.7109 31.7363 15.9444C32.2671 16.1335 32.6918 15.9759 33.1857 15.753C33.9275 15.4184 34.5564 15.2128 35.3907 15.2662C36.1312 15.3136 36.8246 15.5999 37.5613 15.6766C38.2353 15.7467 38.7829 15.5542 39.4206 15.3788C39.4999 15.357 39.5788 15.3369 39.6577 15.3176C38.9328 17.1502 37.7861 18.8028 36.8285 20.5197C35.697 22.5484 34.6037 24.6733 33.676 26.8029C32.8837 28.6216 31.943 30.6391 31.9095 32.6577C31.8924 33.6908 32.0786 34.6991 32.4032 35.677C32.5321 36.0654 32.67 36.5502 32.8783 36.9744C31.278 37.0001 29.7276 37.1118 28.1201 36.8454C27.2724 36.7051 26.4303 36.5012 25.5751 36.4094C24.9053 36.3376 24.1913 36.4871 23.5285 36.5804C21.9376 36.8041 20.4175 37.3008 18.8581 37.6383C18.6358 37.6865 18.6822 38.0515 18.9121 38.0381C20.4807 37.9467 22.0254 37.7346 23.6057 37.7326C24.4288 37.7316 25.1437 37.6496 25.9616 37.8104C26.8366 37.9824 27.7126 38.1648 28.5978 38.2771C30.3578 38.5001 32.0959 38.2024 33.8616 38.2336C35.5739 38.2637 37.137 38.7072 38.8578 38.4229C39.6319 38.295 40.36 38.1572 41.1037 37.91C41.8776 37.6529 42.5512 37.9723 43.3288 37.8525C44.5596 37.663 45.5361 36.674 46.0671 35.5914C46.2937 35.1292 46.4211 34.6184 46.3364 34.1059C46.2674 33.688 46.2901 33.7254 46.5723 33.4118C46.804 33.1542 47.0592 32.9057 47.2704 32.6315C47.6192 32.1788 47.7341 31.6889 47.7626 31.1252C47.7681 31.0185 47.8214 30.6999 47.7721 30.5323C47.8296 30.4764 47.8798 30.4049 47.9182 30.355C48.2751 29.8914 48.0482 29.3694 48.11 28.8416C48.1442 28.5506 48.2719 28.2646 48.4307 27.9832C49.3339 28.2666 49.8518 28.967 49.7339 30.0147C49.6371 30.8738 49.1432 31.796 49.495 32.6435C49.8112 33.405 51.0703 34.1833 50.6582 35.1478C50.2668 36.0653 49.1482 36.5319 48.9478 37.5676Z" fill="white"/>
</svg>
