<svg width="64" height="64" viewBox="0 0 64 64" fill="none" xmlns="http://www.w3.org/2000/svg">
<path fill-rule="evenodd" clip-rule="evenodd" d="M57.2947 6.7052C51.5027 0.914537 40.836 3.8147e-06 32 3.8147e-06C23.1636 3.8147e-06 12.4969 0.914537 6.70574 6.7052C0.915071 12.4973 0 23.164 0 32C0 40.836 0.915071 51.5041 6.70574 57.2948C12.4969 63.0855 23.1636 64 32 64C40.836 64 51.5027 63.0855 57.2947 57.2948C63.0853 51.5041 64 40.836 64 32C64 23.164 63.0853 12.4973 57.2947 6.7052Z" fill="#9246A8"/>
<path d="M50.2291 20.7084H42.7695C42.8023 20.0052 42.7699 19.2983 42.5976 18.6081C41.9878 16.1707 40.2023 14.242 37.8175 13.4456L37.6052 13.3748C36.86 13.1265 36.0817 13 35.1693 13C32.7605 13 30.5097 14.1849 29.1487 16.1647L15.9646 35.0701C15.7638 35.327 15.578 35.5953 15.4048 35.873L15.3098 36.0091L15.3183 36.015C14.4871 37.4022 14 39.0184 14 40.75C14 45.8507 18.1493 50 23.25 50H31.7291H33.2708C33.6969 50 34.0416 49.6552 34.0416 49.2291C34.0416 48.8031 33.6969 48.4583 33.2708 48.4583H33.1038L34.9881 45.375H36.3542C36.7803 45.375 37.1251 45.0302 37.1251 44.6041C37.1251 44.1781 36.7803 43.8333 36.3542 43.8333H35.9302L37.8144 40.75H39.4375C39.8636 40.75 40.2084 40.4052 40.2084 39.9791C40.2084 39.5531 39.8636 39.2083 39.4375 39.2083H38.7566L40.6408 36.125H41.75C42.1761 36.125 42.5209 35.7802 42.5209 35.3541C42.5209 34.9281 42.1761 34.5833 41.75 34.5833H41.583L43.4672 31.5H44.8334C45.2594 31.5 45.6042 31.1552 45.6042 30.7291C45.6042 30.3031 45.2594 29.9583 44.8334 29.9583H44.4094L46.2936 26.875H47.1459C47.5719 26.875 47.9167 26.5302 47.9167 26.1041C47.9167 25.7065 47.6124 25.3912 47.2259 25.3494L49.1199 22.25H50.2291C50.6552 22.25 51 21.9052 51 21.4791C51 21.0531 50.6552 20.7084 50.2291 20.7084ZM30.4164 17.0424C31.4928 15.4766 33.2693 14.5417 35.2928 14.5417C35.9161 14.5417 36.5288 14.6411 37.1175 14.8383L37.3298 14.909C39.2117 15.5369 40.6209 17.0589 41.1012 18.9815C41.4776 20.4856 41.2246 22.1055 40.4087 23.4198L30.8936 38.5679C30.5619 34.6214 27.2808 31.5 23.25 31.5C22.0623 31.5 20.9301 31.733 19.8861 32.1425L30.4164 17.0424ZM31.2971 48.4584H23.25C18.9998 48.4584 15.5416 45.0002 15.5416 40.75C15.5416 39.2272 15.9995 37.8151 16.7648 36.6183L17.0334 36.2332C18.4363 34.3085 20.6915 33.0417 23.2499 33.0417C26.651 33.0417 29.4166 35.8074 29.4166 39.2084C29.4166 42.6093 26.651 45.375 23.25 45.375C20.6996 45.375 18.625 43.3004 18.625 40.75C18.625 38.1996 20.6996 36.125 23.25 36.125C23.4578 36.125 23.6595 36.1461 23.8552 36.1852L22.8224 37.6968C21.3244 37.9045 20.1666 39.1948 20.1666 40.75C20.1666 42.4498 21.5502 43.8334 23.25 43.8334C25.8004 43.8334 27.875 41.7588 27.875 39.2084C27.875 36.658 25.8004 34.5834 23.25 34.5834C19.849 34.5834 17.0834 37.349 17.0834 40.75C17.0834 44.151 19.849 46.9166 23.25 46.9166C26.2422 46.9166 28.813 45.185 30.0898 42.6873L30.1167 42.7041L41.7168 24.2357C42.0988 23.6195 42.3486 22.9431 42.5321 22.2499H47.3129L31.2971 48.4584ZM23.8869 38.8726L25.2554 36.8672C25.9149 37.4333 26.3334 38.2734 26.3334 39.2084C26.3334 40.9081 24.9498 42.2917 23.2501 42.2917C22.3994 42.2917 21.7084 41.6006 21.7084 40.7501C21.7084 39.8994 22.3995 39.2084 23.2501 39.2084C23.5044 39.2084 23.7423 39.0819 23.8869 38.8726Z" fill="white"/>
</svg>
