<svg width="64" height="64" viewBox="0 0 64 64" fill="none" xmlns="http://www.w3.org/2000/svg">
<path fill-rule="evenodd" clip-rule="evenodd" d="M57.2943 6.7052C51.5031 0.914537 40.8364 3.8147e-06 32 3.8147e-06C23.1636 3.8147e-06 12.4969 0.914537 6.70573 6.7052C0.915066 12.4973 0 23.164 0 32C0 40.836 0.915066 51.5041 6.70573 57.2948C12.4969 63.0855 23.1636 64 32 64C40.8364 64 51.5031 63.0855 57.2943 57.2948C63.0849 51.5041 64 40.836 64 32C64 23.164 63.0849 12.4973 57.2943 6.7052Z" fill="#ECC10C"/>
<path d="M50.2083 13H13.7917C13.3541 13 13 13.3541 13 13.7917V16.9584C13 17.3959 13.3541 17.75 13.7917 17.75H14.5834V50.2083C14.5833 50.6459 14.9374 51 15.375 51C16.4272 51 16.9645 50.3861 17.3572 49.9385C17.7028 49.5442 17.8404 49.4167 18.1497 49.4167C18.4581 49.4167 18.5957 49.5443 18.9414 49.9385C19.3341 50.3861 19.8714 51 20.9244 51C21.9766 51 22.5356 50.3606 22.9059 49.9377C23.2499 49.5442 23.3876 49.4166 23.6945 49.4166C23.9999 49.4166 24.1367 49.5442 24.4808 49.9377C24.8495 50.3606 25.4077 51 26.4584 51C26.7328 51 26.9872 50.8577 27.1318 50.6242C27.2763 50.3907 27.2895 50.0993 27.1666 49.8542L21.1379 37.7968C24.027 35.6537 26.0301 32.4484 26.6749 28.8998L28.702 17.75H35.298L37.3252 28.8998C37.97 32.4484 39.9731 35.6537 42.8615 37.796L36.8305 49.8256C36.7585 49.9687 36.7354 50.1589 36.7578 50.3173C36.8119 50.7085 37.1467 51 37.5418 51C38.594 51 39.1313 50.3861 39.524 49.9385C39.8696 49.5442 40.0072 49.4167 40.3164 49.4167C40.6249 49.4167 40.7625 49.5443 41.1081 49.9385C41.5007 50.3861 42.0381 51 43.0911 51C44.1433 51 44.7022 50.3606 45.0726 49.9377C45.4166 49.5442 45.5543 49.4166 45.8612 49.4166C46.1666 49.4166 46.3034 49.5442 46.6474 49.9377C47.0162 50.3606 47.5744 51 48.625 51C49.0626 51 49.4167 50.6459 49.4167 50.2083V17.75H50.2084C50.6459 17.75 51 17.3959 51 16.9583V13.7917C51 13.3541 50.6459 13 50.2083 13ZM24.4482 47.9578C24.2294 47.8804 23.9797 47.8333 23.6945 47.8333C22.643 47.8333 22.0841 48.4727 21.7137 48.8956C21.3697 49.2891 21.232 49.4167 20.9244 49.4167C20.6151 49.4167 20.4775 49.2891 20.132 48.8949C19.7392 48.4472 19.2019 47.8334 18.1497 47.8334C17.0967 47.8334 16.5595 48.4472 16.1667 48.8949V37.7609C17.2425 38.1774 18.6377 38.299 19.6319 38.3257L24.4482 47.9578ZM25.1178 28.6169C24.5211 31.8982 22.611 34.8418 19.8741 36.7431C17.9932 36.7065 16.3288 36.2921 16.1667 35.9584V17.75H27.0935L25.1178 28.6169ZM47.8333 48.8886C47.4638 48.4657 46.9063 47.8333 45.8611 47.8333C44.8096 47.8333 44.2507 48.4727 43.8803 48.8956C43.5363 49.2891 43.3987 49.4167 43.091 49.4167C42.7818 49.4167 42.6442 49.2891 42.2986 48.8949C41.9058 48.4472 41.3686 47.8334 40.3164 47.8334C40.0172 47.8334 39.759 47.8829 39.5348 47.964L44.3672 38.3257C45.3612 38.2992 46.7572 38.1775 47.8334 37.761V48.8886H47.8333ZM47.8333 35.946C47.6573 36.2946 46 36.7065 44.1259 36.7431C41.3889 34.8418 39.4789 31.8982 38.8822 28.6169L36.9065 17.75H47.8333V35.946V35.946ZM49.4167 16.1667H14.5833V14.5833H49.4166V16.1667H49.4167Z" fill="white"/>
</svg>
