<svg width="64" height="64" viewBox="0 0 64 64" fill="none" xmlns="http://www.w3.org/2000/svg">
<path fill-rule="evenodd" clip-rule="evenodd" d="M57.2947 6.7052C51.5027 0.914537 40.836 3.8147e-06 32 3.8147e-06C23.164 3.8147e-06 12.4973 0.914537 6.70534 6.7052C0.914672 12.4973 0 23.164 0 32C0 40.836 0.914672 51.5041 6.70534 57.2948C12.4973 63.0855 23.164 64 32 64C40.836 64 51.5027 63.0855 57.2947 57.2948C63.0853 51.5041 64 40.836 64 32C64 23.164 63.0853 12.4973 57.2947 6.7052Z" fill="#32435B"/>
<path d="M54.6063 25.6636H53.6112V21.9651C53.6112 19.7787 51.8325 18 49.6461 18H35.2758C33.9436 18 32.7637 18.661 32.0444 19.6715C31.325 18.6609 30.1451 18 28.813 18H19.7851C19.3798 18 19.0513 18.3285 19.0513 18.7337C19.0513 19.1389 19.3798 19.4674 19.7851 19.4674H28.813C30.1902 19.4674 31.3107 20.5879 31.3107 21.9651V29.3033C31.2953 29.2886 31.2791 29.2748 31.2635 29.2602C30.3938 28.4493 29.215 27.9818 28.0252 27.9818H15.8036C15.7389 26.9967 15.0673 26.1302 14.1406 25.8017C13.8795 25.7092 13.6034 25.6636 13.3264 25.6636H11.945V21.9651C11.945 20.5879 13.0654 19.4674 14.4427 19.4674H16.8502C17.2554 19.4674 17.5839 19.1389 17.5839 18.7337C17.5839 18.3285 17.2554 18 16.8502 18H14.4427C12.2563 18 10.4775 19.7787 10.4775 21.9651V25.6636H9.48243C8.11359 25.6636 7 26.7774 7 28.146V35.8071C7 38.6577 9.31915 40.9768 12.1697 40.9768H12.5384C12.5384 40.9768 11.735 43.1377 11.7345 43.1394C11.2276 44.5025 12.2709 46 13.7228 46H14.9033C15.564 46 16.1965 45.6854 16.5951 45.1584L19.7581 40.9768H44.3309L47.4938 45.1585C47.8925 45.6854 48.5249 46 49.1856 46C49.1856 46 50.3652 46 50.3659 46C51.8196 46 52.861 44.5022 52.3543 43.1394L51.5502 40.9768H51.919C54.7696 40.9768 57.0887 38.6577 57.0887 35.8071V28.146C57.0887 26.7774 55.9752 25.6636 54.6063 25.6636ZM32.7781 21.9653C32.7781 20.588 33.8985 19.4675 35.2758 19.4675H49.6461C51.0233 19.4675 52.1438 20.588 52.1438 21.9652V25.6637C52.1438 25.6637 50.7627 25.6637 50.7622 25.6637C49.7867 25.6637 48.8508 26.2898 48.4724 27.1881C48.3665 27.4396 48.303 27.7098 48.2852 27.982C48.2852 27.982 36.0639 27.982 36.0635 27.982C34.8553 27.982 33.6511 28.4682 32.7781 29.3035V21.9653ZM15.809 29.4494H28.0252C29.8369 29.4495 31.3107 30.9233 31.3107 32.7349V33.7782H15.809V29.4494ZM15.4248 44.2731C15.3019 44.4356 15.1068 44.5326 14.9032 44.5326C14.9032 44.5326 13.7269 44.5326 13.7228 44.5326C13.2735 44.5326 12.9533 44.0717 13.1098 43.6508L14.104 40.9768H17.918L15.4248 44.2731ZM50.3659 44.5325H49.1856C48.9819 44.5325 48.7869 44.4355 48.6641 44.2731L46.1708 40.9768H49.9848C49.9848 40.9768 50.9755 43.6414 50.9789 43.6507C51.1357 44.0726 50.8133 44.5325 50.3659 44.5325ZM51.919 39.5094H12.1697C10.1283 39.5095 8.46744 37.8485 8.46744 35.8071V28.146C8.46744 27.5863 8.92274 27.131 9.48243 27.131H13.3264C13.8861 27.131 14.3414 27.5863 14.3414 28.146V34.5119C14.3414 34.9171 14.6699 35.2456 15.0751 35.2456H42.0249C42.4302 35.2456 42.7587 34.9171 42.7587 34.5119C42.7587 34.1067 42.4302 33.7782 42.0249 33.7782H32.7781V32.7348C32.7781 30.9232 34.2519 29.4494 36.0635 29.4494H48.2798V33.7782H44.9598C44.5546 33.7782 44.2261 34.1068 44.2261 34.512C44.2261 34.9172 44.5546 35.2457 44.9598 35.2457H49.0135C49.4187 35.2457 49.7472 34.9172 49.7472 34.512V28.1461C49.7472 27.5864 50.2025 27.1311 50.7622 27.1311H54.6062C55.1659 27.1311 55.6212 27.5864 55.6212 28.1461V35.8071H55.6213C55.6213 37.8485 53.9605 39.5094 51.919 39.5094Z" fill="white"/>
</svg>
