<svg width="64" height="64" viewBox="0 0 64 64" fill="none" xmlns="http://www.w3.org/2000/svg">
<path fill-rule="evenodd" clip-rule="evenodd" d="M57.2947 6.70534C51.5027 0.914676 40.836 3.8147e-06 32 3.8147e-06C23.164 3.8147e-06 12.4973 0.914676 6.70534 6.70534C0.914672 12.4973 0 23.164 0 32C0 40.836 0.914672 51.5027 6.70534 57.2948C12.4973 63.0855 23.164 64 32 64C40.836 64 51.5027 63.0855 57.2947 57.2948C63.0853 51.5027 64 40.836 64 32C64 23.164 63.0853 12.4973 57.2947 6.70534Z" fill="#E56F19"/>
<path d="M25.4348 43.1553C25.4348 41.4195 24.0332 40.0121 22.3045 40.0121C20.5753 40.0121 19.1738 41.4195 19.1738 43.1553C19.1738 44.8914 20.5753 46.2988 22.3045 46.2988C24.0332 46.2988 25.4348 44.8914 25.4348 43.1553Z" fill="white"/>
<path d="M52.595 43.1553C52.595 41.4195 51.1935 40.0121 49.4643 40.0121C47.7356 40.0121 46.334 41.4195 46.334 43.1553C46.334 44.8914 47.7356 46.2988 49.4643 46.2988C51.1935 46.2988 52.595 44.8914 52.595 43.1553Z" fill="white"/>
<path d="M54.4405 28.657L50.5838 27.0785L47.3301 19.8109C46.8375 18.7109 45.7418 18 44.5387 18H15.7648C14.9396 18 14.2707 18.6693 14.2707 19.4941V22.3704H15.7648C16.5901 22.3704 17.259 23.0396 17.259 23.8645C17.259 24.6898 16.5901 25.3586 15.7648 25.3586H14.2707V28.3473H19.4504C20.2757 28.3473 20.9445 29.0162 20.9445 29.8415C20.9445 30.6663 20.2757 31.3356 19.4504 31.3356H14.2707V34.3239H15.7648C16.5901 34.3239 17.259 34.9927 17.259 35.818C17.259 36.6433 16.5901 37.3122 15.7648 37.3122H14.2707V40.3549C14.2707 41.1802 14.9396 41.8491 15.7648 41.8491H16.3267C16.9259 39.0938 19.3776 37.0238 22.3044 37.0238C25.2308 37.0238 27.6825 39.0938 28.2822 41.8491H43.4866C44.0862 39.0938 46.5379 37.0238 49.4643 37.0238C52.3911 37.0238 54.8428 39.0938 55.442 41.8491H56.5058C57.3307 41.8491 58 41.1802 58 40.3549V33.969C58 31.627 56.6027 29.5418 54.4405 28.657V28.657ZM40.1065 28.7006C39.2812 28.7006 38.6123 28.0318 38.6123 27.2065V20.6326H44.5387C44.5656 20.6326 48.1009 28.4897 48.1009 28.4897C48.134 28.5637 48.1741 28.6337 48.2184 28.7006H40.1065Z" fill="white"/>
<path d="M11.6808 34.3239C10.8556 34.3239 10.1867 34.9927 10.1867 35.818C10.1867 36.6433 10.8556 37.3122 11.6808 37.3122H14.2707V34.3239H11.6808Z" fill="white"/>
<path d="M11.6808 28.3473C10.8556 28.3473 10.1867 29.0162 10.1867 29.8414C10.1867 30.6663 10.8556 31.3356 11.6808 31.3356H14.2707V28.3473H11.6808Z" fill="white"/>
<path d="M8.49414 22.3704C7.66886 22.3704 7 23.0396 7 23.8645C7 24.6898 7.66886 25.3586 8.49414 25.3586H14.2707V22.3704H8.49414Z" fill="white"/>
</svg>
